<?xml version="1.0" encoding="utf-8"?>
<!-- Generator: Adobe Illustrator 19.0.0, SVG Export Plug-In . SVG Version: 6.00 Build 0)  -->
<svg version="1.1" id="Layer_1" xmlns="http://www.w3.org/2000/svg" xmlns:xlink="http://www.w3.org/1999/xlink" x="0px" y="0px"
	 viewBox="0 0 500 500" style="enable-background:new 0 0 500 500;" xml:space="preserve">
<style type="text/css">
	.st0{fill:#003B70;}
	.st1{fill:#D9261C;}
</style>
<g id="layer1" transform="translate(-297.9885,-472.70039)">
	<g id="g4940" transform="matrix(2.4662885,0,0,-2.4662885,-772.5069,719.18727)">
		<path id="path1274" class="st0" d="M480.4-13.1l-0.1-0.1c-1.7-1.7-3.7-2.6-5.7-2.6c-4.2,0-7.3,3.2-7.3,7.6c0,4.4,3.1,7.6,7.3,7.6
			c2,0,4-0.9,5.7-2.7l0.1-0.1l2.7,3.3L483-0.1c-2.3,2.7-5,4-8.3,4c-3.3,0-6.4-1.1-8.6-3.2c-2.4-2.2-3.7-5.3-3.7-9
			c0-3.7,1.3-6.8,3.7-9c2.2-2,5.3-3.2,8.6-3.2c3.3,0,6.1,1.3,8.3,4l0.1,0.1L480.4-13.1z"/>
		<path id="path1276" class="st0" d="M485.9-20h4.8V3.5h-4.8V-20L485.9-20z"/>
		<path id="path1278" class="st0" d="M509.5-14.9c-1.3-0.8-2.5-1.2-3.5-1.2c-1.6,0-2.3,0.8-2.3,2.6v12.5h4.9v4.4h-4.9v7.3L499,8.3
			V3.5h-4.1v-4.4h4.1v-13.2c0-3.6,2.1-6.1,5.3-6.1c2.2,0,3.5,0.6,4.3,1.1l0,0l1.2,4.5L509.5-14.9L509.5-14.9z"/>
		<path id="path1280" class="st0" d="M513.5-20h4.8V3.5h-4.8V-20L513.5-20z"/>
		<path id="path1282" class="st0" d="M595,12.4V-10l1.5,2.3c0,0,6.7,9.7,7.6,11h3c-0.6-0.9-5.9-8.1-5.9-8.1s6.9-14.4,7.3-15.2h-2.9
			c-0.2,0.3-6.1,12.9-6.1,12.9l-4.4-6.2V-20h-2.7v30.8C592.5,11,594.3,12.1,595,12.4L595,12.4z M572.4,0.6c1.4,2.1,3.6,3.3,6.2,3.3
			c5.2,0,7.9-3.3,7.9-9.5V-20h-2.8v13.7c0,5.3-1.8,7.8-5.8,7.8c-3.8,0-6.1-2.9-6.1-7.8V-20h-2.7V3.4h2.7v-3.6L572.4,0.6z M555.6,3.9
			c5.3,0,7.9-2.4,7.9-7.4V-20h-2.7v3.4l-0.5-0.6c-2-2.2-4.3-3.3-7.1-3.3c-2.2,0-7.2,0.7-7.2,7.4c0,5.4,4.5,7.4,8.7,7.4
			c2.1,0,4.2-0.5,5.7-1.3l0.5-0.3V-4c0,3.7-1.8,5.6-5.4,5.6c-2.2,0-4.2-0.6-6.2-1.7c-0.2,0.4-0.8,1.8-1,2.2
			C550.2,3.2,552.9,3.9,555.6,3.9L555.6,3.9z M548.6-12.9c0-3.5,1.8-5.4,5.1-5.4c2.8,0,5.3,1.3,7,3.7l0.1,0.1v5.1l-0.2,0.1
			c-1.8,1-3.5,1.4-6.2,1.4C550.8-7.9,548.6-9.8,548.6-12.9z M527.4,12.4V0l0.5,0.6c2,2.2,4.3,3.3,6.8,3.3c5.1,0,8.1-4.3,8.1-11.8
			c0-7.6-3.4-12.6-8.5-12.6c-2.5,0-4.6,1-6.4,3.1l-0.5,0.6V-20h-2.7v30.8C524.9,11,526.8,12.1,527.4,12.4L527.4,12.4z M527.5-2.1
			L527.5-2.1l-0.1-12.2l0-0.1c1.5-2.3,4-3.7,6.6-3.7c4.1,0,6.1,3.4,6.1,10.2c0,6-2.3,9.5-6.2,9.5C531.5,1.5,529.3,0.3,527.5-2.1"/>
		<path id="path1284" class="st1" d="M521.2,7.7c-4.4,6.2-11.7,10-19.1,10c-7.4,0-14.7-3.7-19.1-10l-0.2-0.3h5.5l0.1,0.1
			c3.8,3.9,8.7,6,13.8,6c5.1,0,10-2.1,13.8-6l0.1-0.1h5.5L521.2,7.7z"/>
	</g>
</g>
</svg>
