<?xml version="1.0" encoding="utf-8"?>
<!-- Generator: Adobe Illustrator 19.0.0, SVG Export Plug-In . SVG Version: 6.00 Build 0)  -->
<svg version="1.1" id="Layer_1" xmlns="http://www.w3.org/2000/svg" xmlns:xlink="http://www.w3.org/1999/xlink" x="0px" y="0px"
	 viewBox="0 0 500 500" style="enable-background:new 0 0 500 500;" xml:space="preserve">
<style type="text/css">
	.st0{fill:#004E96;}
	.st1{fill:#FFFFFF;}
	.st2{fill:#FF7F2A;}
</style>
<g id="XMLID_1_">
	<rect id="XMLID_24_" x="68.1" y="192.1" class="st0" width="364.4" height="115.8"/>
	<polygon id="XMLID_25_" class="st1" points="98.5,207.4 97.8,213.3 85.2,213.3 84,221.5 96.7,221.5 95.8,227.5 83.1,227.5 
		80.7,243.6 73.4,243.6 78.5,207.3 	"/>
	<path id="XMLID_26_" class="st1" d="M102.5,207.4l-5,36.4c0,0,21.7,0.4,21.7-0.1c0-0.4,0.7-5.8,0.7-5.8h-14.5l1.5-10.4h14.6
		l0.9-6.1h-14.5l1.2-8.2h14.5l0.8-5.9L102.5,207.4z"/>
	<path id="XMLID_27_" class="st1" d="M162,207.4l-5,36.4c0,0,21.7,0.4,21.7-0.1c0-0.4,0.7-5.8,0.7-5.8h-14.5l1.5-10.4h14.6l0.9-6.1
		h-14.5l1.2-8.2h14.5l0.9-5.9L162,207.4z"/>
	<path id="XMLID_28_" class="st1" d="M128.8,207.4l-5,36.4h7.2l4.2-30.5l5.4-0.1c0,0,7.7,0,9.9,8.2l0,0.1c2,8.6-4.2,15.7-10.1,16.4
		c0,0-7.4,0.4-8.7,0.1l-0.9,5.7c0,0,11.1,0.5,15.9-1.8c0,0,10.9-3.6,11-19.1c0,0-1-15.1-19-15.6L128.8,207.4z"/>
	<path id="XMLID_29_" class="st1" d="M188.5,207.4l-5,36.5h7.4l4.2-30.7c0,0,7.2-1.1,8.1,2.5c0,0,2,8-8.1,7.7l-1.2,5.3l9.2,15.1h7.6
		l-9.3-15.7c0,0,8.1-1.2,8.9-10.7c0,0,0.2-9.5-11.2-10H188.5z"/>
	<polygon id="XMLID_30_" class="st1" points="193.6,223.3 197.6,223.4 193.9,228.9 192.8,228.8 	"/>
	<polygon id="XMLID_31_" class="st1" points="211.6,243.8 236.4,205.9 249.1,243.8 241.5,243.8 234.5,220.8 220,243.8 	"/>
	<polygon id="XMLID_32_" class="st1" points="224.5,236 239.5,236 237.8,230.2 227.9,230.1 	"/>
	<polygon id="XMLID_33_" class="st1" points="314.2,243.8 339,205.9 351.7,243.8 344.1,243.8 337.1,220.8 322.5,243.8 	"/>
	<polygon id="XMLID_34_" class="st1" points="327.1,236 342,236 340.3,230.2 330.5,230.1 	"/>
	<polygon id="XMLID_35_" class="st1" points="255.8,207.4 250.6,243.7 270.5,243.7 271.3,237.9 259,237.9 262.9,207.3 	"/>
	<path id="XMLID_36_" class="st1" d="M294.2,207.4l-5,36.4h6.5h1l4.4-30.6l0.1-0.6c0,0,4.5-0.3,6.1,1.9c0,0,3.2,5.1-3.6,7.5
		l-4.2,0.2l-1.1,5.4c0,0,4.4-0.4,5.6,0.3c0,0,7.5,2.2,2.9,8.7c0,0-2.5,2.4-9.2,1.5l-0.7,0.1l-0.4,1.1l-0.7,4.6c0,0,0.4-0.2,4.5,0
		c0,0,9.8,0,13.1-4.6c0,0,6.4-8-3.2-14.5c0,0,5.9-4.2,4.4-9.7c0,0-0.7-7-10.8-7.7H294.2z"/>
	<polygon id="XMLID_37_" class="st1" points="359.6,205.7 354.6,243.7 361.6,243.7 365.1,219.1 389.9,244.3 395.3,207.3 
		387.8,207.3 384.6,229.7 	"/>
	<polygon id="XMLID_38_" class="st1" points="399.9,207.3 394.8,243.8 402.4,243.8 407.4,207.4 	"/>
	<polygon id="XMLID_39_" class="st1" points="419.7,207.4 428.1,207.4 403.9,229.8 405.1,220.6 	"/>
	<polygon id="XMLID_40_" class="st1" points="405.3,227.9 418.7,243.7 427.2,243.7 410.9,223 	"/>
	<rect id="XMLID_41_" x="67.5" y="287.9" class="st2" width="365" height="20"/>
	<path id="XMLID_42_" class="st1" d="M77,267c-0.6-1-1.4-2.2-2.3-3.6l-1.3-1.9c-0.6-0.9-1-1.5-1.3-1.8c-0.2-0.3-0.4-0.5-0.4-0.6
		c0.4,0,0.8,0.1,1.3,0.1c0.5,0,0.9,0,1.3-0.1c0.1,0.4,0.3,0.7,0.5,1c0.2,0.3,0.4,0.8,0.8,1.4l0.8,1.3c0.7,1.1,1.3,2.1,1.8,2.9h0
		c0.5-0.8,1.1-1.7,1.7-2.7l0.9-1.5c0.3-0.5,0.6-1,0.7-1.3c0.2-0.3,0.3-0.7,0.5-1.1c0.3,0,0.6,0.1,0.9,0.1c0.3,0,0.7,0,0.9-0.1
		c-0.1,0.1-0.2,0.3-0.4,0.6c-0.2,0.3-0.6,0.9-1.3,1.8l-1.2,1.8c-0.8,1.2-1.5,2.3-2.1,3.3v1.1c0,1.5,0,2.6,0,3.2
		c0,0.6,0.1,1.2,0.1,1.6c-0.3,0-0.7-0.1-1.1-0.1c-0.4,0-0.7,0-1.1,0.1c0.1-0.4,0.1-0.9,0.1-1.6c0-0.6,0-1.7,0-3.2L77,267L77,267z"/>
	<path id="XMLID_45_" class="st1" d="M93.4,271.9c-1.7,0-3.1-0.5-4.1-1.6c-1-1.1-1.5-2.5-1.5-4.3c0-1.9,0.5-3.4,1.5-4.5
		c1-1.1,2.4-1.7,4.1-1.7c1.7,0,3.1,0.5,4.1,1.6c1,1.1,1.5,2.5,1.5,4.3c0,1.9-0.5,3.4-1.5,4.5C96.5,271.3,95.1,271.9,93.4,271.9
		 M93.3,272.7c2.4,0,4.3-0.7,5.7-2c1.5-1.3,2.2-3,2.2-5.1c0-2-0.7-3.6-2.1-4.8c-1.4-1.2-3.3-1.8-5.6-1.8c-2.4,0-4.3,0.7-5.7,2
		c-1.5,1.3-2.2,3-2.2,5.1c0,2,0.7,3.6,2.1,4.8C89.1,272.1,91,272.7,93.3,272.7"/>
	<path id="XMLID_46_" class="st1" d="M116.8,266.7c0,2-0.5,3.5-1.5,4.5c-1,1-2.5,1.5-4.5,1.5c-2,0-3.5-0.4-4.5-1.3
		c-1-0.9-1.5-2.2-1.5-4.1V266l0-4.4c0-0.8,0-1.3,0-1.7c0-0.3,0-0.6-0.1-0.7c0.3,0,0.7,0.1,1.1,0.1c0.4,0,0.8,0,1.1-0.1
		c0,0.2-0.1,0.4-0.1,0.7c0,0.3,0,0.9-0.1,1.6c0,1.3-0.1,2.8-0.1,4.4v0.8c0,1.7,0.4,2.9,1.1,3.7c0.7,0.8,1.8,1.2,3.3,1.2
		c1.6,0,2.7-0.4,3.5-1.3c0.7-0.9,1.1-2.2,1.1-4.1V266l0-4.4c0-0.8,0-1.4,0-1.7c0-0.3,0-0.5,0-0.7c0.2,0,0.5,0.1,0.8,0.1
		c0.3,0,0.5,0,0.8-0.1c0,0.2-0.1,0.5-0.1,0.8c0,0.3-0.1,0.8-0.1,1.6c0,1.3-0.1,2.8-0.1,4.4L116.8,266.7L116.8,266.7z"/>
	<path id="XMLID_49_" class="st1" d="M123.2,260.1c0.5,0,1.1-0.1,1.8-0.1c1.1,0,1.9,0.2,2.5,0.6c0.6,0.4,0.9,1,0.9,1.7
		c0,0.8-0.4,1.5-1.1,2c-0.8,0.5-1.8,0.7-3.1,0.7c-0.3,0-0.7,0-1,0V260.1L123.2,260.1z M121.3,271.9c0,0.3,0,0.5-0.1,0.7
		c0.3,0,0.7-0.1,1.1-0.1c0.4,0,0.8,0,1.1,0.1c0-0.1,0-0.3-0.1-0.7c0-0.3,0-0.9-0.1-1.7c0-1.2,0-2.6,0-4.2h0h0.7
		c0.7,0.8,1.5,1.7,2.4,2.8l1.2,1.4c0.6,0.6,1,1.1,1.2,1.4c0.2,0.3,0.5,0.6,0.6,0.9c0.4,0,0.8-0.1,1.3-0.1c0.5,0,0.9,0,1.3,0.1
		c-0.1-0.1-0.3-0.3-0.6-0.6c-0.3-0.3-0.8-0.9-1.6-1.8l-1.1-1.3c-1-1.1-1.8-2.1-2.5-3c1-0.2,1.9-0.5,2.6-0.9c1.1-0.7,1.7-1.6,1.7-2.7
		c0-1-0.4-1.8-1.2-2.4c-0.8-0.5-1.9-0.8-3.5-0.8c-0.2,0-0.5,0-0.8,0c-0.3,0-0.7,0-1.1,0c-0.2,0-0.6,0-1,0c-0.4,0-1,0-1.6-0.1
		c0,0.1,0,0.3,0.1,0.7c0,0.3,0,0.9,0.1,1.7c0,1.3,0,2.7,0,4.3c0,1.6,0,3,0,4.3C121.3,271,121.3,271.5,121.3,271.9"/>
	<path id="XMLID_52_" class="st1" d="M142.7,260.2c0.5-0.1,1.1-0.1,1.8-0.1c1.1,0,2,0.2,2.6,0.6c0.6,0.4,0.9,1,0.9,1.9
		c0,0.9-0.4,1.6-1.1,2.1c-0.7,0.5-1.7,0.8-2.8,0.8c-0.5,0-1,0-1.4-0.1V260.2z M140.8,271.8c0,0.3,0,0.5-0.1,0.7
		c0.3,0,0.7-0.1,1.1-0.1c0.4,0,0.8,0,1.1,0.1c0-0.1,0-0.3-0.1-0.7c0-0.3,0-0.9-0.1-1.7c0-1.1,0-2.4,0-3.8h0c0.5,0.1,1.2,0.1,1.8,0.1
		c1.8,0,3.1-0.3,4.1-1c1-0.7,1.5-1.6,1.5-2.9c0-1.1-0.4-2-1.2-2.5c-0.8-0.6-2.1-0.8-3.8-0.8c-0.3,0-0.5,0-0.9,0c-0.3,0-0.6,0-1,0
		c-0.3,0-0.6,0-1,0c-0.4,0-0.9,0-1.4,0c0,0.1,0,0.3,0.1,0.7c0,0.3,0,0.9,0.1,1.7c0,1.3,0,2.7,0,4.2c0,1.6,0,3,0,4.3
		C140.8,270.9,140.8,271.5,140.8,271.8"/>
	<path id="XMLID_53_" class="st1" d="M152.5,272.6c0-0.1,0-0.3,0.1-0.7c0-0.3,0-0.9,0.1-1.7c0-1.3,0-2.8,0-4.4c0-1.6,0-3.1,0-4.4
		c0-0.8,0-1.4-0.1-1.7c0-0.3,0-0.5-0.1-0.7c0.2,0,0.7,0.1,1.2,0.1c0.6,0,1.2,0,1.7,0h1.6c0.6,0,1.2,0,1.7,0c0.5,0,0.9-0.1,1.3-0.1
		c0,0.2-0.1,0.4-0.1,0.7c0,0.2,0,0.5,0.1,0.7c-0.2,0-0.7-0.1-1.3-0.1c-0.6,0-1.2-0.1-1.8-0.1h-0.7c-0.6,0-1.3,0-1.8,0l-0.1,4.8h1.9
		c0.6,0,1.3,0,1.9-0.1c0.6,0,1.1-0.1,1.3-0.1c0,0.2-0.1,0.4-0.1,0.7c0,0.2,0,0.5,0.1,0.7c-0.2-0.1-0.7-0.1-1.3-0.1
		c-0.6,0-1.3-0.1-1.9-0.1h-1.9c0,2.1,0,3.9,0.1,5.4l1.4,0h0.7c0.6,0,1.3,0,2-0.1c0.7,0,1.2-0.1,1.5-0.1c0,0.2-0.1,0.4-0.1,0.7
		c0,0.3,0,0.5,0.1,0.7c-0.3,0-0.7-0.1-1.4-0.1c-0.6,0-1.2-0.1-1.7-0.1h-1.6c-0.5,0-1.1,0-1.7,0C153.2,272.6,152.8,272.6,152.5,272.6
		"/>
	<path id="XMLID_56_" class="st1" d="M165.7,260.1c0.5,0,1.1-0.1,1.8-0.1c1.1,0,1.9,0.2,2.5,0.6c0.6,0.4,0.9,1,0.9,1.7
		c0,0.8-0.4,1.5-1.1,2c-0.8,0.5-1.8,0.7-3.1,0.7c-0.3,0-0.7,0-1,0V260.1L165.7,260.1z M163.8,271.9c0,0.3,0,0.5-0.1,0.7
		c0.3,0,0.7-0.1,1.1-0.1c0.4,0,0.8,0,1.1,0.1c0-0.1,0-0.3-0.1-0.7c0-0.3,0-0.9-0.1-1.7c0-1.2,0-2.6,0-4.2h0h0.7
		c0.7,0.8,1.5,1.7,2.4,2.8l1.2,1.4c0.6,0.6,1,1.1,1.2,1.4c0.2,0.3,0.5,0.6,0.6,0.9c0.4,0,0.8-0.1,1.3-0.1s0.9,0,1.3,0.1
		c-0.1-0.1-0.3-0.3-0.6-0.6c-0.3-0.3-0.8-0.9-1.6-1.8l-1.1-1.3c-1-1.1-1.8-2.1-2.5-3c1-0.2,1.9-0.5,2.6-0.9c1.1-0.7,1.7-1.6,1.7-2.7
		c0-1-0.4-1.8-1.2-2.4c-0.8-0.5-1.9-0.8-3.5-0.8c-0.2,0-0.5,0-0.8,0c-0.3,0-0.7,0-1.1,0c-0.2,0-0.6,0-1,0c-0.4,0-1,0-1.6-0.1
		c0,0.1,0,0.3,0.1,0.7c0,0.3,0,0.9,0.1,1.7c0,1.3,0,2.7,0,4.3c0,1.6,0,3,0,4.3C163.9,271,163.9,271.5,163.8,271.9"/>
	<path id="XMLID_57_" class="st1" d="M176.9,270.1c0-1.3,0-2.7,0-4.3c0-1.6,0-3.1,0-4.3c0-0.8,0-1.4-0.1-1.7c0-0.3,0-0.5-0.1-0.7
		c0.2,0,0.7,0.1,1.4,0.1c0.7,0,1.4,0,2.1,0h1.3c0.6,0,1.2,0,1.7,0c0.5,0,0.9-0.1,1.3-0.1c0,0.2-0.1,0.4-0.1,0.7c0,0.3,0,0.5,0.1,0.7
		c-0.2-0.1-0.7-0.1-1.3-0.1c-0.6,0-1.2,0-1.8,0h-0.8c-0.7,0-1.3,0-1.9,0c0,1.3-0.1,2.9-0.1,4.7l2.1,0c0.6,0,1.3,0,1.9-0.1
		c0.6,0,1.1-0.1,1.3-0.1c0,0.2-0.1,0.4-0.1,0.7c0,0.2,0,0.5,0.1,0.7c-0.2,0-0.6-0.1-1.2-0.1c-0.6,0-1.3-0.1-2-0.1l-2.1,0
		c0,1.6,0,3,0,4.2c0,0.8,0,1.4,0.1,1.7c0,0.3,0,0.5,0.1,0.7c-0.3,0-0.7-0.1-1.1-0.1s-0.8,0-1.1,0.1c0-0.1,0-0.3,0.1-0.7
		C176.8,271.5,176.9,271,176.9,270.1"/>
	<path id="XMLID_58_" class="st1" d="M187.6,272.6c0-0.1,0-0.3,0.1-0.7c0-0.3,0-0.9,0.1-1.7c0-1.3,0-2.8,0-4.4c0-1.6,0-3.1,0-4.4
		c0-0.8,0-1.4-0.1-1.7c0-0.3,0-0.5-0.1-0.7c0.2,0,0.7,0.1,1.2,0.1c0.6,0,1.2,0,1.7,0h1.6c0.6,0,1.2,0,1.7,0c0.5,0,0.9-0.1,1.3-0.1
		c0,0.2-0.1,0.4-0.1,0.7c0,0.2,0,0.5,0.1,0.7c-0.2,0-0.7-0.1-1.3-0.1c-0.6,0-1.2-0.1-1.8-0.1h-0.7c-0.6,0-1.3,0-1.8,0l-0.1,4.8h1.9
		c0.6,0,1.3,0,1.9-0.1c0.6,0,1.1-0.1,1.3-0.1c0,0.2-0.1,0.4-0.1,0.7c0,0.2,0,0.5,0.1,0.7c-0.2-0.1-0.7-0.1-1.3-0.1
		c-0.6,0-1.3-0.1-1.9-0.1h-1.9c0,2.1,0,3.9,0.1,5.4l1.4,0h0.7c0.6,0,1.3,0,2-0.1c0.7,0,1.2-0.1,1.5-0.1c0,0.2-0.1,0.4-0.1,0.7
		c0,0.3,0,0.5,0.1,0.7c-0.3,0-0.7-0.1-1.4-0.1c-0.6,0-1.2-0.1-1.7-0.1h-1.6c-0.5,0-1.1,0-1.7,0C188.4,272.6,187.9,272.6,187.6,272.6
		"/>
	<path id="XMLID_59_" class="st1" d="M210.3,270.5c0,0.2-0.1,0.4-0.1,0.6c0,0.2,0,0.4-0.1,0.6c-0.7,0.4-1.5,0.6-2.2,0.8
		c-0.8,0.2-1.6,0.3-2.5,0.3c-2.2,0-3.9-0.6-5.3-1.8c-1.4-1.2-2-2.8-2-4.8c0-2.1,0.7-3.8,2.2-5.1c1.4-1.3,3.3-2,5.6-2
		c0.9,0,1.7,0.1,2.5,0.2c0.8,0.1,1.5,0.4,2.3,0.7c-0.1,0.3-0.2,0.6-0.3,0.8c-0.1,0.2-0.1,0.5-0.2,0.8l-0.3,0c-0.5-0.5-1-0.9-1.7-1.2
		c-0.7-0.3-1.4-0.4-2.1-0.4c-1.7,0-3.1,0.6-4.1,1.7c-1,1.1-1.5,2.6-1.5,4.5c0,1.7,0.5,3.1,1.6,4.2c1,1.1,2.4,1.7,4,1.7
		c0.8,0,1.6-0.1,2.4-0.4c0.8-0.3,1.4-0.7,2-1.2L210.3,270.5L210.3,270.5z"/>
	<path id="XMLID_60_" class="st1" d="M216.5,270.1c0-1.3,0-2.7,0-4.3c0-2.2,0-4.1-0.1-5.7h-1.1c-0.7,0-1.4,0-2.1,0.1
		c-0.7,0-1.2,0.1-1.4,0.1c0-0.2,0.1-0.4,0.1-0.7c0-0.3,0-0.5-0.1-0.7c0.8,0,1.6,0.1,2.6,0.1c1,0,1.7,0.1,2.2,0.1h0.6h0.6
		c0.6,0,1.3,0,2.3-0.1c1,0,1.8-0.1,2.5-0.1c0,0.2-0.1,0.4-0.1,0.7c0,0.3,0,0.5,0.1,0.7c-0.3,0-0.7-0.1-1.4-0.1c-0.7,0-1.4-0.1-2-0.1
		h-0.8c0,1.6-0.1,3.5-0.1,5.7c0,1.6,0,3,0,4.3c0,0.8,0,1.4,0.1,1.7c0,0.3,0,0.5,0.1,0.7c-0.3,0-0.7-0.1-1.1-0.1
		c-0.4,0-0.8,0-1.1,0.1c0-0.1,0-0.4,0.1-0.7C216.5,271.5,216.5,271,216.5,270.1"/>
	<path id="XMLID_64_" class="st1" d="M233.7,260.3c0.5-0.1,1-0.1,1.6-0.1c1,0,1.9,0.2,2.5,0.6c0.6,0.4,0.9,0.9,0.9,1.6
		c0,0.8-0.3,1.4-1,1.8c-0.7,0.5-1.6,0.7-2.7,0.7h-1.3V260.3L233.7,260.3z M231.8,271.9c0,0.3,0,0.5-0.1,0.7l1-0.1l2.7,0.1
		c1.7,0,3.1-0.3,4.2-1c1.1-0.7,1.6-1.6,1.6-2.7c0-1.2-0.5-2.1-1.4-2.7c-0.6-0.4-1.4-0.7-2.5-0.8c0.7-0.2,1.4-0.4,1.9-0.7
		c1-0.6,1.5-1.5,1.5-2.5c0-1-0.4-1.7-1.2-2.2c-0.8-0.5-2.1-0.7-3.7-0.7l-3,0.1l-1-0.1c0,0.1,0,0.3,0.1,0.7c0,0.3,0,0.9,0.1,1.7
		c0,1.3,0,2.7,0,4.3c0,1.6,0,3,0,4.3C231.8,271,231.8,271.5,231.8,271.9 M233.7,265.9h1.4c1.3,0,2.4,0.2,3,0.7c0.7,0.4,1,1.1,1,2
		c0,1-0.4,1.7-1.1,2.2c-0.7,0.5-1.8,0.8-3.1,0.8c-0.5,0-0.9,0-1.3-0.1V265.9L233.7,265.9z"/>
	<path id="XMLID_67_" class="st1" d="M249.7,262L249.7,262l1.8,3.9l0.2,0.5c-0.6,0.1-1.3,0.1-2.1,0.1c-0.7,0-1.4,0-2.1-0.1l0.2-0.5
		c0.7-1.4,1-2.1,1-2.1S249.2,263.1,249.7,262 M243.7,271.9c-0.2,0.3-0.3,0.5-0.4,0.6c0.2,0,0.5-0.1,0.8-0.1c0.3,0,0.6,0,0.8,0.1
		c0.1-0.4,0.2-0.7,0.3-1.1c0.1-0.3,0.3-0.8,0.6-1.3c0.3-0.8,0.7-1.7,1.2-2.6c0.8-0.1,1.7-0.2,2.7-0.2c1,0,1.8,0.1,2.6,0.2l1.2,2.6
		c0.3,0.6,0.5,1.1,0.6,1.4c0.1,0.3,0.2,0.6,0.3,1c0.3,0,0.7-0.1,1.2-0.1c0.4,0,0.8,0,1.2,0.1l-1.2-2.4c-0.6-1.3-1.3-2.7-2-4.2
		c-1.3-2.7-2.3-4.9-3.1-6.7h-0.3h-0.2c-0.8,1.8-1.8,4-3.1,6.7c-0.8,1.6-1.5,3-2.1,4.2C244.2,271,243.9,271.6,243.7,271.9"/>
	<path id="XMLID_68_" class="st1" d="M261,270.1c0,0.8,0.1,1.4,0.1,1.7c0,0.3,0,0.6,0.1,0.7c-0.2,0-0.5-0.1-0.8-0.1
		c-0.3,0-0.5,0-0.8,0.1c0-0.1,0-0.3,0.1-0.7c0-0.3,0-0.9,0.1-1.7c0-1.3,0-2.7,0-4.3c0-1.6,0-3,0-4.2c0-0.8,0-1.4-0.1-1.7
		c0-0.3,0-0.5-0.1-0.7h0.3h0.3c1.8,1.9,4,4.1,6.8,6.8l3.4,3.3l0-3.4c0-1.6,0-3.1,0-4.4c0-0.8,0-1.4-0.1-1.7c0-0.3,0-0.5-0.1-0.7
		c0.2,0,0.5,0.1,0.7,0.1c0.3,0,0.5,0,0.7-0.1c0,0.1,0,0.3-0.1,0.7c0,0.3,0,0.9-0.1,1.7c0,1.3,0,2.8,0,4.4c0,2.7,0,5,0.1,6.8h-0.3
		h-0.3c-1.8-1.9-4.1-4.1-6.8-6.8l-3.5-3.3v3.3C260.9,267.4,261,268.9,261,270.1"/>
	<path id="XMLID_69_" class="st1" d="M278.3,270.1c0,0.8,0,1.4,0.1,1.7c0,0.3,0,0.5,0.1,0.7c-0.3,0-0.7-0.1-1.1-0.1s-0.8,0-1.1,0.1
		c0-0.1,0-0.3,0.1-0.7c0-0.3,0-0.9,0.1-1.7c0-1.3,0-2.7,0-4.3c0-1.6,0-3,0-4.3c0-0.8,0-1.4-0.1-1.7c0-0.3,0-0.5-0.1-0.7
		c0.3,0,0.7,0.1,1.1,0.1s0.8,0,1.1-0.1c0,0.1,0,0.4-0.1,0.7c0,0.3,0,0.9-0.1,1.7c0,1.2,0,2.4,0,3.8h0c0.9-0.7,2-1.7,3.2-2.8
		c1.3-1.3,2.4-2.3,3.2-3.3h1.1c0.4,0,0.8,0,1.1-0.1c-0.1,0.1-0.4,0.3-0.8,0.6c-0.4,0.3-1.1,0.9-2.1,1.8l-1.7,1.5l-2.2,2l2.3,2.5
		l2.3,2.5c0.8,0.9,1.4,1.5,1.7,1.8c0.3,0.3,0.5,0.5,0.6,0.6c-0.4,0-0.8-0.1-1.3-0.1c-0.5,0-0.9,0-1.3,0.1c-0.2-0.3-0.4-0.6-0.7-1
		c-0.3-0.3-0.7-0.8-1.3-1.4l-1.1-1.2c-1.2-1.3-2.2-2.3-3.1-3.2h0l0,0.1C278.2,267.4,278.2,268.9,278.3,270.1"/>
	<path id="XMLID_70_" class="st1" d="M289.6,270.1c0-1.3,0-2.7,0-4.3c0-1.6,0-3,0-4.3c0-0.8,0-1.4-0.1-1.7c0-0.3,0-0.5-0.1-0.7
		c0.3,0,0.7,0.1,1.1,0.1s0.8,0,1.1-0.1c0,0.1,0,0.3-0.1,0.7c0,0.3,0,0.9-0.1,1.7c0,1.3,0,2.7,0,4.3c0,1.6,0,3,0,4.3
		c0,0.8,0,1.4,0.1,1.7c0,0.3,0,0.5,0.1,0.7c-0.3,0-0.7-0.1-1.1-0.1s-0.8,0-1.1,0.1c0-0.1,0-0.3,0.1-0.7
		C289.5,271.5,289.6,271,289.6,270.1"/>
	<path id="XMLID_71_" class="st1" d="M297.3,270.1c0,0.8,0.1,1.4,0.1,1.7c0,0.3,0,0.6,0.1,0.7c-0.2,0-0.5-0.1-0.8-0.1
		c-0.3,0-0.5,0-0.8,0.1c0-0.1,0-0.3,0.1-0.7c0-0.3,0-0.9,0.1-1.7c0-1.3,0-2.7,0-4.3c0-1.6,0-3,0-4.2c0-0.8,0-1.4-0.1-1.7
		c0-0.3,0-0.5-0.1-0.7h0.3h0.3c1.8,1.9,4,4.1,6.8,6.8l3.4,3.3l0-3.4c0-1.6,0-3.1,0-4.4c0-0.8,0-1.4-0.1-1.7c0-0.3,0-0.5-0.1-0.7
		c0.2,0,0.5,0.1,0.7,0.1s0.5,0,0.7-0.1c0,0.1,0,0.3-0.1,0.7c0,0.3,0,0.9-0.1,1.7c0,1.3,0,2.8,0,4.4c0,2.7,0,5,0.1,6.8h-0.3h-0.3
		c-1.8-1.9-4-4.1-6.8-6.8l-3.5-3.3v3.3C297.2,267.4,297.3,268.9,297.3,270.1"/>
	<path id="XMLID_72_" class="st1" d="M319.2,272.7c-2.3,0-4.1-0.6-5.5-1.8c-1.4-1.2-2.1-2.8-2.1-4.8c0-2.1,0.7-3.8,2.2-5.1
		c1.5-1.3,3.4-2,5.7-2c1.1,0,2.1,0.1,3,0.3c0.9,0.2,1.8,0.5,2.6,0.9c-0.1,0.3-0.2,0.6-0.3,0.8c-0.1,0.2-0.1,0.5-0.2,0.8h-0.3
		c-0.6-0.6-1.3-1.1-2.1-1.4c-0.8-0.4-1.7-0.5-2.5-0.5c-1.8,0-3.2,0.6-4.3,1.7c-1.1,1.1-1.6,2.6-1.6,4.5c0,1.8,0.5,3.2,1.6,4.3
		c1.1,1.1,2.5,1.6,4.3,1.6c1.2,0,2.3-0.2,3.5-0.6v-1.3c0-0.9,0-1.5,0-2c0-0.5-0.1-1-0.2-1.6c0.3,0,0.7,0.1,1.1,0.1
		c0.4,0,0.8,0,1.1-0.1c-0.1,0.2-0.1,0.5-0.1,0.8c0,0.3,0,0.8-0.1,1.6v0.3c0,0.9,0,1.5,0,1.9c0,0.4,0.1,0.7,0.1,0.9
		C323.4,272.4,321.5,272.7,319.2,272.7"/>
	<path id="XMLID_75_" class="st1" d="M337.4,260.2c0.5-0.1,1.1-0.1,1.8-0.1c1.1,0,2,0.2,2.6,0.6c0.6,0.4,0.9,1,0.9,1.9
		c0,0.9-0.4,1.6-1.1,2.1c-0.7,0.5-1.7,0.8-2.8,0.8c-0.5,0-1,0-1.4-0.1V260.2z M335.6,271.8c0,0.3,0,0.5-0.1,0.7
		c0.3,0,0.7-0.1,1.1-0.1c0.4,0,0.8,0,1.1,0.1c0-0.1,0-0.3-0.1-0.7c0-0.3,0-0.9-0.1-1.7c0-1.1,0-2.4,0-3.8h0c0.5,0.1,1.2,0.1,1.8,0.1
		c1.8,0,3.1-0.3,4.1-1c1-0.7,1.5-1.6,1.5-2.9c0-1.1-0.4-2-1.2-2.5c-0.8-0.6-2.1-0.8-3.8-0.8c-0.3,0-0.5,0-0.9,0c-0.3,0-0.6,0-1,0
		c-0.3,0-0.6,0-1,0c-0.4,0-0.9,0-1.4,0c0,0.1,0,0.3,0.1,0.7c0,0.3,0,0.9,0.1,1.7c0,1.3,0,2.7,0,4.2c0,1.6,0,3,0,4.3
		C335.6,270.9,335.6,271.5,335.6,271.8"/>
	<path id="XMLID_78_" class="st1" d="M352.4,262L352.4,262l1.8,3.9l0.2,0.5c-0.6,0.1-1.3,0.1-2.1,0.1c-0.7,0-1.4,0-2.1-0.1l0.2-0.5
		c0.7-1.4,1-2.1,1-2.1S351.8,263.1,352.4,262 M346.4,271.9c-0.2,0.3-0.3,0.5-0.4,0.6c0.2,0,0.5-0.1,0.8-0.1c0.3,0,0.6,0,0.8,0.1
		c0.1-0.4,0.2-0.7,0.3-1.1c0.1-0.3,0.3-0.8,0.6-1.3c0.3-0.8,0.7-1.7,1.2-2.6c0.8-0.1,1.7-0.2,2.7-0.2c1,0,1.8,0.1,2.6,0.2l1.2,2.6
		c0.3,0.6,0.5,1.1,0.6,1.4c0.1,0.3,0.2,0.6,0.3,1c0.3,0,0.7-0.1,1.2-0.1c0.4,0,0.8,0,1.2,0.1l-1.2-2.4c-0.6-1.3-1.3-2.7-2.1-4.2
		c-1.3-2.7-2.3-4.9-3-6.7h-0.3h-0.2c-0.8,1.8-1.8,4-3.1,6.7c-0.8,1.6-1.5,3-2.1,4.2C346.9,271,346.5,271.6,346.4,271.9"/>
	<path id="XMLID_81_" class="st1" d="M364,260.1c0.5,0,1.1-0.1,1.8-0.1c1.1,0,1.9,0.2,2.5,0.6c0.6,0.4,0.9,1,0.9,1.7
		c0,0.8-0.4,1.5-1.1,2c-0.8,0.5-1.8,0.7-3.1,0.7c-0.3,0-0.7,0-1,0V260.1L364,260.1z M362.1,271.9c0,0.3,0,0.5-0.1,0.7
		c0.3,0,0.7-0.1,1.1-0.1c0.4,0,0.8,0,1.1,0.1c0-0.1,0-0.3-0.1-0.7c0-0.3,0-0.9-0.1-1.7c0-1.2,0-2.6,0-4.2h0h0.7
		c0.7,0.8,1.5,1.7,2.4,2.8l1.2,1.4c0.6,0.6,1,1.1,1.2,1.4c0.2,0.3,0.5,0.6,0.6,0.9c0.4,0,0.8-0.1,1.3-0.1c0.5,0,0.9,0,1.3,0.1
		c-0.1-0.1-0.3-0.3-0.6-0.6c-0.3-0.3-0.8-0.9-1.6-1.8l-1.1-1.3c-1-1.1-1.8-2.1-2.5-3c1-0.2,1.9-0.5,2.6-0.9c1.1-0.7,1.7-1.6,1.7-2.7
		c0-1-0.4-1.8-1.2-2.4c-0.8-0.5-1.9-0.8-3.5-0.8c-0.2,0-0.5,0-0.8,0c-0.3,0-0.7,0-1.1,0c-0.2,0-0.6,0-1,0c-0.4,0-1,0-1.6-0.1
		c0,0.1,0,0.3,0.1,0.7c0,0.3,0,0.9,0.1,1.7c0,1.3,0,2.7,0,4.3c0,1.6,0,3,0,4.3C362.2,271,362.1,271.5,362.1,271.9"/>
	<path id="XMLID_82_" class="st1" d="M378.5,270.1c0-1.3,0-2.7,0-4.3c0-2.2,0-4.1-0.1-5.7h-1.1c-0.7,0-1.4,0-2.1,0.1
		c-0.7,0-1.2,0.1-1.4,0.1c0-0.2,0.1-0.4,0.1-0.7c0-0.3,0-0.5-0.1-0.7c0.8,0,1.6,0.1,2.6,0.1c1,0,1.7,0.1,2.2,0.1h0.6h0.6
		c0.6,0,1.3,0,2.3-0.1c1,0,1.8-0.1,2.5-0.1c0,0.2-0.1,0.4-0.1,0.7c0,0.3,0,0.5,0.1,0.7c-0.3,0-0.7-0.1-1.4-0.1c-0.7,0-1.4-0.1-2-0.1
		h-0.8c0,1.6-0.1,3.5-0.1,5.7c0,1.6,0,3,0,4.3c0,0.8,0,1.4,0.1,1.7c0,0.3,0,0.5,0.1,0.7c-0.3,0-0.7-0.1-1.1-0.1
		c-0.4,0-0.8,0-1.1,0.1c0-0.1,0-0.4,0.1-0.7C378.5,271.5,378.5,271,378.5,270.1"/>
	<path id="XMLID_83_" class="st1" d="M389,270.1c0,0.8,0.1,1.4,0.1,1.7c0,0.3,0,0.6,0.1,0.7c-0.2,0-0.5-0.1-0.8-0.1
		c-0.3,0-0.5,0-0.8,0.1c0-0.1,0-0.3,0.1-0.7c0-0.3,0-0.9,0.1-1.7c0-1.3,0-2.7,0-4.3c0-1.6,0-3,0-4.2c0-0.8,0-1.4-0.1-1.7
		c0-0.3,0-0.5-0.1-0.7h0.3h0.3c1.8,1.9,4.1,4.1,6.8,6.8l3.4,3.3l0-3.4c0-1.6,0-3.1,0-4.4c0-0.8,0-1.4-0.1-1.7c0-0.3,0-0.5-0.1-0.7
		c0.2,0,0.5,0.1,0.7,0.1c0.3,0,0.5,0,0.7-0.1c0,0.1,0,0.3-0.1,0.7c0,0.3,0,0.9-0.1,1.7c0,1.3,0,2.8,0,4.4c0,2.7,0,5,0.1,6.8h-0.3
		h-0.3c-1.8-1.9-4-4.1-6.8-6.8l-3.5-3.3v3.3C388.9,267.4,389,268.9,389,270.1"/>
	<path id="XMLID_84_" class="st1" d="M403.9,272.6c0-0.1,0-0.3,0.1-0.7c0-0.3,0-0.9,0.1-1.7c0-1.3,0-2.8,0-4.4c0-1.6,0-3.1,0-4.4
		c0-0.8,0-1.4-0.1-1.7c0-0.3,0-0.5-0.1-0.7c0.2,0,0.7,0.1,1.2,0.1c0.6,0,1.2,0,1.7,0h1.6c0.6,0,1.2,0,1.7,0c0.5,0,0.9-0.1,1.3-0.1
		c0,0.2-0.1,0.4-0.1,0.7c0,0.2,0,0.5,0.1,0.7c-0.2,0-0.7-0.1-1.3-0.1c-0.6,0-1.2-0.1-1.8-0.1h-0.7c-0.6,0-1.2,0-1.8,0l-0.1,4.8h1.9
		c0.6,0,1.3,0,1.9-0.1c0.7,0,1.1-0.1,1.3-0.1c0,0.2-0.1,0.4-0.1,0.7c0,0.2,0,0.5,0.1,0.7c-0.2-0.1-0.7-0.1-1.3-0.1
		c-0.6,0-1.3-0.1-1.9-0.1h-1.9c0,2.1,0,3.9,0.1,5.4l1.4,0h0.7c0.6,0,1.3,0,2-0.1c0.7,0,1.2-0.1,1.5-0.1c0,0.2-0.1,0.4-0.1,0.7
		c0,0.3,0,0.5,0.1,0.7c-0.3,0-0.7-0.1-1.4-0.1c-0.6,0-1.2-0.1-1.7-0.1h-1.6c-0.5,0-1.1,0-1.7,0C404.6,272.6,404.2,272.6,403.9,272.6
		"/>
	<path id="XMLID_87_" class="st1" d="M417.1,260.1c0.5,0,1.1-0.1,1.8-0.1c1.1,0,1.9,0.2,2.5,0.6c0.6,0.4,0.9,1,0.9,1.7
		c0,0.8-0.4,1.5-1.1,2c-0.8,0.5-1.8,0.7-3.1,0.7c-0.3,0-0.7,0-1,0V260.1L417.1,260.1z M415.2,271.9c0,0.3,0,0.5-0.1,0.7
		c0.3,0,0.7-0.1,1.1-0.1c0.4,0,0.8,0,1.1,0.1c0-0.1,0-0.3-0.1-0.7c0-0.3,0-0.9-0.1-1.7c0-1.2,0-2.6,0-4.2h0h0.7
		c0.7,0.8,1.5,1.7,2.5,2.8l1.2,1.4c0.6,0.6,1,1.1,1.2,1.4c0.2,0.3,0.5,0.6,0.6,0.9c0.4,0,0.8-0.1,1.3-0.1c0.5,0,0.9,0,1.3,0.1
		c-0.1-0.1-0.3-0.3-0.6-0.6c-0.3-0.3-0.8-0.9-1.6-1.8l-1.1-1.3c-1-1.1-1.8-2.1-2.5-3c1-0.2,1.9-0.5,2.6-0.9c1.1-0.7,1.7-1.6,1.7-2.7
		c0-1-0.4-1.8-1.2-2.4c-0.8-0.5-1.9-0.8-3.5-0.8c-0.2,0-0.5,0-0.8,0c-0.3,0-0.7,0-1.1,0c-0.2,0-0.6,0-1,0c-0.4,0-1,0-1.6-0.1
		c0,0.1,0,0.3,0.1,0.7c0,0.3,0,0.9,0.1,1.7c0,1.3,0,2.7,0,4.3c0,1.6,0,3,0,4.3C415.2,271,415.2,271.5,415.2,271.9"/>
</g>
</svg>
