<?xml version="1.0" encoding="utf-8"?>
<!-- Generator: Adobe Illustrator 19.0.0, SVG Export Plug-In . SVG Version: 6.00 Build 0)  -->
<svg version="1.1" id="Layer_1" xmlns="http://www.w3.org/2000/svg" xmlns:xlink="http://www.w3.org/1999/xlink" x="0px" y="0px"
	 viewBox="0 0 500 500" style="enable-background:new 0 0 500 500;" xml:space="preserve">
<style type="text/css">
	.st0{fill:#004C8F;}
	.st1{fill:#FFFFFF;}
	.st2{fill:#ED232A;}
</style>
<g id="XMLID_1_">
	<polygon id="XMLID_3_" class="st0" points="67.5,219.6 432.5,219.6 432.5,280.4 67.5,280.4 67.5,219.6 	"/>
	<rect id="XMLID_4_" x="128.3" y="219.6" class="st0" width="304.2" height="60.8"/>
	<polyline id="XMLID_5_" class="st1" points="147.7,264.4 147.7,235.6 157.1,235.6 157.1,245.3 166,245.3 166,235.6 175.5,235.6 
		175.5,264.4 166,264.4 166,253.2 157.1,253.2 157.1,264.4 147.7,264.4 	"/>
	<path id="XMLID_8_" class="st1" d="M190.5,242.8h2.5c1.8,0,3.1,0.2,3.9,0.6c0.6,0.3,1.1,0.7,1.5,1.3c0.4,0.6,0.7,1.3,1,2.3
		c0.2,0.9,0.3,1.9,0.3,2.9c0,1.7-0.2,3.1-0.7,4.2c-0.5,1.1-1.2,2-2.1,2.5c-0.9,0.5-2.2,0.8-4,0.8l-2.4,0V242.8z M194.1,264.4
		L194.1,264.4c2.2,0,4.1-0.2,5.6-0.6c1.5-0.4,2.8-0.9,3.7-1.5c1-0.6,1.8-1.5,2.6-2.6c0.8-1.1,1.5-2.5,2-4.2c0.6-1.7,0.8-3.6,0.8-5.8
		c0-3.2-0.6-5.8-1.8-8.1c-1.2-2.2-2.9-3.8-5.1-4.7c-2.1-0.9-4.7-1.4-7.7-1.4h-13.2v28.8L194.1,264.4"/>
	<polyline id="XMLID_9_" class="st1" points="213.3,264.4 213.3,235.6 235.7,235.6 235.7,242.7 222.6,242.7 222.6,247.3 
		233.1,247.3 233.1,254.2 222.6,254.2 222.6,264.4 213.3,264.4 	"/>
	<path id="XMLID_10_" class="st1" d="M267.5,246.6h-8.9c-0.2-1.4-0.7-2.6-1.6-3.4c-0.9-0.8-2-1.2-3.3-1.2c-1.7,0-3,0.6-4.1,1.9
		c-1.1,1.3-1.6,3.4-1.6,6.3c0,2,0.2,3.5,0.7,4.6c0.5,1.1,1.1,1.8,1.9,2.3c0.8,0.5,1.8,0.7,3,0.7c1.5,0,2.6-0.4,3.5-1.2
		c0.9-0.8,1.4-2,1.5-3.5h9.1c-0.2,1.8-0.6,3.3-1.1,4.5c-0.5,1.2-1.4,2.4-2.6,3.6c-1.2,1.2-2.7,2.2-4.3,2.8c-1.7,0.7-3.6,1-5.8,1
		c-2.2,0-4.2-0.3-6.1-1c-1.9-0.7-3.4-1.6-4.7-2.8c-1.3-1.2-2.3-2.6-3-4.1c-1-2.2-1.5-4.5-1.5-7.2c0-2.2,0.4-4.3,1.1-6.2
		c0.7-1.9,1.7-3.5,3-4.9c1.3-1.3,2.7-2.3,4.2-2.9c2-0.8,4.1-1.2,6.6-1.2c2.1,0,4,0.3,5.9,0.9c1.8,0.6,3.3,1.5,4.5,2.7
		c1.2,1.2,2.1,2.6,2.7,4.1C267,243.7,267.3,245,267.5,246.6"/>
	<path id="XMLID_14_" class="st1" d="M297.8,242.1c1.3,0,2.2,0.1,2.6,0.2c0.6,0.2,1,0.5,1.3,0.9c0.3,0.4,0.5,0.9,0.5,1.5
		c0,0.7-0.3,1.3-0.8,1.8c-0.6,0.5-1.6,0.7-3.1,0.7h-3.6v-5.1H297.8L297.8,242.1z M300.2,264.4L300.2,264.4c2.2,0,3.8-0.1,4.7-0.3
		c0.9-0.2,1.9-0.6,2.8-1c0.9-0.5,1.7-0.9,2.1-1.5c0.7-0.7,1.3-1.5,1.7-2.5c0.4-1,0.6-2.1,0.6-3.3c0-1.7-0.4-3.2-1.3-4.3
		c-0.9-1.2-2-1.9-3.5-2.4c2.5-1.6,3.7-3.6,3.7-6.1c0-2.6-1.1-4.5-3.3-5.9c-1.7-1-4.3-1.5-7.9-1.5h-14.3v28.8H300.2z M298.6,252.3
		L298.6,252.3c1.9,0,3.1,0.2,3.7,0.7c0.6,0.5,0.9,1.1,0.9,2c0,0.9-0.3,1.6-0.9,2c-0.6,0.5-1.8,0.7-3.6,0.7h-3.9v-5.5L298.6,252.3"/>
	<path id="XMLID_17_" class="st1" d="M332.9,254.7h-6l3-10.5L332.9,254.7z M324.1,264.4L324.1,264.4l1.1-3.8h9.4l1.1,3.8h9.4
		l-10.3-28.8h-9.6l-10.3,28.8H324.1"/>
	<polyline id="XMLID_18_" class="st1" points="349.1,264.4 349.1,235.6 357.9,235.6 367.8,251 367.8,235.6 376.9,235.6 376.9,264.4 
		367.9,264.4 358.2,249.4 358.2,264.4 349.1,264.4 	"/>
	<polyline id="XMLID_19_" class="st1" points="383.2,264.4 383.2,235.6 392.4,235.6 392.4,245.1 400.9,235.6 412.1,235.6 
		401.5,246.4 413.2,264.4 401.8,264.4 394.9,252.9 392.4,255.4 392.4,264.4 383.2,264.4 	"/>
	<rect id="XMLID_20_" x="67.5" y="219.6" class="st2" width="60.8" height="60.8"/>
	<rect id="XMLID_21_" x="78.1" y="230.2" class="st1" width="39.5" height="39.5"/>
	<rect id="XMLID_22_" x="94.9" y="219.6" class="st1" width="6.1" height="60.8"/>
	<rect id="XMLID_23_" x="67.5" y="247" class="st1" width="60.8" height="6.1"/>
	<rect id="XMLID_24_" x="88.8" y="240.9" class="st0" width="18.2" height="18.2"/>
</g>
</svg>
