<?xml version="1.0" encoding="utf-8"?>
<!-- Generator: Adobe Illustrator 19.0.0, SVG Export Plug-In . SVG Version: 6.00 Build 0)  -->
<svg version="1.1" id="Layer_1" xmlns="http://www.w3.org/2000/svg" xmlns:xlink="http://www.w3.org/1999/xlink" x="0px" y="0px"
	 viewBox="0 0 500 500" style="enable-background:new 0 0 500 500;" xml:space="preserve">
<style type="text/css">
	.st0{fill:#00579C;}
	.st1{fill:#DA251C;}
</style>
<g id="XMLID_1_">
	<path id="XMLID_3_" class="st0" d="M128.4,211.6h4c0.3,0.1,0.7,0.1,1,0.1c4.6,0.4,9.2,1.8,13.1,4.4c1.6,1,3,2.2,4.3,3.6
		c1,1.1,1.9,2.3,2.7,3.6c0.5,0.8,0.9,1.6,1.3,2.4c1.2,2.5,1.9,5.3,2.2,8.1c0.1,0.5,0,0.9,0.1,1.4c0,0.5,0,1.1,0,1.6
		c0,0.6,0,1.3-0.1,1.9c-0.1,1.6-0.3,3.2-0.6,4.8c-0.2,1-0.5,1.9-0.7,2.8c-1.9,7.7-3.8,15.3-5.8,23c-0.3,1.4-0.7,2.8-1,4.2
		c-0.2,0.9-0.5,1.8-1,2.6c-0.4,0.6-0.9,1.2-1.5,1.6c-1.3,1.1-3,1.6-4.7,1.6c-0.7-0.1-1.4-0.2-2.1-0.4c-0.7-0.3-1.4-0.6-2-1.2
		c-0.8-0.7-1.2-1.7-1.2-2.7c-0.1-0.6,0.1-1.2,0.2-1.8c0.9-3.6,1.8-7.3,2.7-10.9c0.4-1.5,0.7-3.1,1.1-4.6c1.3-5.3,2.7-10.6,4-15.9
		c0.3-1.3,0.5-2.6,0.6-4c0-1,0.1-2.1-0.1-3.1c-0.1-1.3-0.4-2.5-0.9-3.7c-0.4-1.2-1.1-2.2-1.9-3.1c-0.2-0.3-0.6-0.6-0.9-0.9
		c-0.1-0.1-0.3-0.3-0.4-0.4c-0.9-0.7-1.8-1.2-2.8-1.7c-0.9-0.4-1.8-0.7-2.7-1c-1.3-0.4-2.6-0.6-4-0.7c-0.6-0.1-1.2,0-1.8-0.1
		c-0.5,0-0.9,0.1-1.4,0.1c-2.2,0.2-4.4,0.7-6.5,1.5c-1.4,0.5-2.7,1.1-4,1.8c-1.5,0.9-3,1.9-4.4,3.1c-0.5,0.5-0.9,0.9-1.4,1.4
		c-0.9,1-1.7,2.1-2.3,3.4c-0.6,1.9-1.1,3.7-1.6,5.6c-0.6,2.4-1.3,4.8-1.9,7.3c-0.7,2.7-1.4,5.5-2.2,8.2c-0.4,1.1-0.7,2.3-1.1,3.4
		c-0.2,0.6-0.3,1.3-0.6,1.9c-0.9,2.1-3,3.5-5.2,3.9c-1.5,0.3-3.2,0.1-4.5-0.7c-0.4-0.3-0.8-0.6-1.1-1c-0.6-0.7-0.9-1.6-1-2.4
		c0-0.4-0.2-0.8,0-1.3c1.8-5.9,3.2-12,4.8-18c0.9-3.4,1.8-6.8,2.7-10.1c0.2-0.8,0.6-1.6,1-2.3c1.1-2.2,2.5-4.2,4.2-6.1
		c0.6-0.6,1.3-1.3,1.9-1.9c1-0.9,2-1.8,3.2-2.5c0.6-0.5,1.2-0.8,1.8-1.2c2.4-1.5,4.9-2.7,7.5-3.7c0.6-0.2,1.3-0.5,1.9-0.7
		c1.4-0.4,2.8-0.8,4.2-1c1.1-0.2,2.2-0.3,3.4-0.5C127.8,211.6,128.1,211.7,128.4,211.6L128.4,211.6z"/>
	<path id="XMLID_4_" class="st1" d="M81.4,223.1c0.4,0,0.8-0.1,1.2-0.1c1,0.1,2.1,0.2,3,0.7c0.6,0.3,1.3,0.8,1.7,1.4
		c0.6,0.7,0.6,1.7,0.4,2.6c-0.5,2-1,3.9-1.5,5.9c-0.6,2.4-1.2,4.8-1.8,7.1c-0.4,1.8-0.9,3.6-1.4,5.4c-0.5,2.1-1,4.1-1.5,6.2
		c-0.4,1.6-0.8,3.3-1.2,4.9c-0.5,1.8-0.8,3.6-0.9,5.4c-0.1,0.5-0.1,1,0,1.4c0,1.9,0.5,3.8,1.3,5.5c0.4,0.7,0.8,1.4,1.3,2
		c0.4,0.4,0.8,0.9,1.2,1.3c0.5,0.4,1,0.9,1.6,1.2c0.6,0.4,1.3,0.7,1.9,1c1.5,0.6,3,1,4.5,1.3c1.4,0.2,2.9,0.3,4.4,0.2
		c3.7-0.2,7.3-1.3,10.5-3c1.9-1,3.7-2.3,5.3-3.7c0.9-0.9,1.8-1.8,2.5-2.9c0.4-0.6,0.9-1.3,1.1-2.1c1.9-6.6,3.6-13.4,5.3-20.1
		c0.4-1.3,0.8-2.6,1.2-3.9c0.4-1.2,0.9-2.4,1.8-3.3c0.5-0.6,1.1-1.1,1.7-1.5c1.3-0.9,3-1.2,4.6-1c0.8,0.1,1.5,0.3,2.2,0.6
		c0.8,0.4,1.6,1,2,1.9c0.4,0.8,0.4,1.7,0.2,2.6c-1.2,4-2.3,8-3.3,12.1c-1.4,5.4-2.8,10.9-4.4,16.3c-0.1,0.5-0.3,1-0.6,1.4
		c-0.4,0.9-0.9,1.7-1.4,2.6c-0.9,1.5-1.9,2.8-3.1,4.1c-0.5,0.6-1.1,1.1-1.6,1.6c-1,1-2.1,1.9-3.3,2.7c-1.8,1.3-3.8,2.5-5.8,3.5
		c-0.9,0.4-1.8,0.9-2.8,1.2c-0.8,0.4-1.7,0.6-2.6,0.9c-1.3,0.4-2.7,0.8-4,1.1c-0.5,0.1-1,0.2-1.5,0.3c-0.8,0.1-1.6,0.2-2.4,0.3
		c-0.4,0.1-0.8,0-1.2,0.1h-4c-0.2,0-0.3-0.1-0.5-0.1c-0.6,0-1.1-0.1-1.7-0.2c-1.7-0.2-3.5-0.6-5.2-1.1c-1.9-0.5-3.7-1.4-5.4-2.3
		c-1.2-0.7-2.4-1.5-3.5-2.5c-0.3-0.3-0.7-0.6-1-0.9c-0.5-0.5-1.1-1-1.5-1.6c-3-3.4-4.9-7.8-5.5-12.3c-0.1-0.7-0.1-1.4-0.3-2.2v-4.1
		c0.1-0.3,0.1-0.6,0.1-0.8c0.2-2,0.5-4.1,1.1-6c0.9-3.4,1.7-6.8,2.6-10.1c0.7-2.7,1.4-5.4,2-8.1c0.6-2.4,1.2-4.8,1.8-7.2
		c0.2-0.6,0.3-1.2,0.5-1.8c0.3-0.6,0.6-1.3,1.2-1.8c0.3-0.2,0.5-0.5,0.8-0.7C78.6,223.7,80,223.2,81.4,223.1z"/>
	<path id="XMLID_5_" class="st1" d="M181.2,228.3c2.8,0,5.6,0,8.3,0c-1.3,6.4-2.7,12.8-4,19.1c-0.3,1.3-0.6,2.6-0.6,3.9
		c0,0.7,0.1,1.4,0.5,2.1c0.3,0.6,0.9,1,1.5,1.2c0.6,0.2,1.2,0.3,1.8,0.4c0.8,0.1,1.5,0,2.3-0.1c1-0.1,1.9-0.5,2.6-1.1
		c1.1-0.9,1.7-2.2,2.1-3.5c0.3-0.8,0.4-1.7,0.6-2.5c1.4-6.4,2.7-12.9,4.1-19.3c0.1-0.1,0.2,0,0.3,0c2.7,0,5.4,0,8.1,0
		c-0.3,1.7-0.7,3.4-1.1,5.1c-0.7,3.5-1.5,6.9-2.2,10.4c-0.4,1.7-0.7,3.3-1.1,5c-0.4,1.8-1,3.5-1.7,5.1c-0.7,1.3-1.6,2.5-2.7,3.6
		c-2.4,2.2-5.5,3.7-8.7,4.2c-0.6,0.1-1.1,0.2-1.7,0.2c-0.8,0.1-1.6,0-2.4,0.1c-0.5,0-0.9-0.1-1.3-0.1c-1.7-0.2-3.3-0.6-4.8-1.4
		c-1.2-0.6-2.3-1.5-3.1-2.6c-1-1.4-1.5-3.2-1.4-4.9c0-0.8,0-1.6,0.1-2.5c0.2-1.9,0.7-3.9,1.1-5.8c1-4.9,2-9.8,3.1-14.7
		C180.9,229.5,181.1,228.9,181.2,228.3L181.2,228.3z"/>
	<path id="XMLID_6_" class="st1" d="M241.9,228.3c2.6,0,5.3,0,7.9,0c-0.4,2.2-0.9,4.3-1.4,6.5c-2.6,0-5.3,0-7.9,0
		C241.1,232.6,241.5,230.4,241.9,228.3z"/>
	<path id="XMLID_10_" class="st1" d="M322.3,228.3c0.1-0.1,0.2,0,0.3,0c5.3,0,10.7,0,16,0c0.3,0,0.7,0,1,0c1.7,0.1,3.3,0.3,4.9,1
		c1.3,0.6,2.5,1.6,3,3c0.3,1,0.5,2.1,0.3,3.2c-0.1,0.8-0.3,1.7-0.5,2.5c-0.3,0.8-0.7,1.7-1.2,2.4c-0.4,0.6-0.9,1-1.4,1.5
		c-1,0.8-2.2,1.5-3.4,1.9c0.9,0.3,1.8,0.6,2.5,1.2c0.3,0.3,0.7,0.6,1,1c0.6,0.9,1,2,1,3.1c0,0.8-0.1,1.5-0.2,2.3
		c-0.4,1.6-1.1,3.1-2.1,4.4c-0.5,0.7-1.2,1.3-1.8,2c-1.2,1-2.6,1.8-4.1,2.3c-1.2,0.4-2.4,0.6-3.6,0.8c-0.5,0-1,0.1-1.5,0.1
		c-1,0.2-2.1,0-3.2,0.1c-0.8,0.1-1.5,0-2.3,0.1c-3.9,0-7.7,0-11.6,0C317.7,250.2,320,239.2,322.3,228.3 M329,235
		c0,0.3-0.1,0.7-0.2,1c-0.4,1.7-0.7,3.4-1.1,5.1c2.2,0,4.4,0,6.6,0c1,0,2-0.1,2.9-0.5c0.6-0.3,1.2-0.8,1.5-1.4
		c0.3-0.6,0.6-1.2,0.5-1.8c0-0.4,0-0.8-0.2-1.2c-0.2-0.4-0.6-0.7-1.1-0.9c-0.6-0.2-1.3-0.3-1.9-0.3C333.8,235,331.4,235,329,235
		 M326.4,247.4c0,0.5-0.2,1-0.3,1.5c-0.2,1-0.4,2-0.6,3c-0.2,0.9-0.4,1.7-0.5,2.6c2.3,0,4.7,0,7,0c1.2-0.1,2.4-0.2,3.5-0.8
		c1-0.6,1.6-1.6,1.8-2.8c0.3-1,0.2-2.2-0.7-2.9c-1-0.6-2.2-0.8-3.3-0.7C331,247.4,328.7,247.3,326.4,247.4L326.4,247.4z"/>
	<path id="XMLID_11_" class="st1" d="M410,228.3c2.6,0,5.2,0,7.8,0c0,0.2-0.1,0.4-0.1,0.6c-0.4,1.8-0.7,3.5-1.1,5.3
		c-0.7,3.6-1.5,7.2-2.3,10.8c0.5-0.3,0.8-0.7,1.2-1c0.4-0.3,0.7-0.7,1.1-1c0.4-0.3,0.7-0.7,1.1-1c0.2-0.2,0.5-0.5,0.7-0.7
		c0.4-0.3,0.7-0.7,1-0.9c0.3-0.3,0.6-0.6,0.9-0.9c0.3-0.2,0.5-0.5,0.8-0.7c0.5-0.4,0.8-0.8,1.3-1.2c0.3-0.2,0.5-0.5,0.7-0.7
		c0.9,0,1.7,0,2.6,0c2.3,0,4.5,0,6.8,0v0.1c-3.1,2.8-6.2,5.5-9.3,8.3c-0.4,0.3-0.6,0.6-1,0.9c0.4,1.1,0.8,2.1,1.2,3.1
		c1.3,3.3,2.6,6.6,3.9,10c0.2,0.7,0.5,1.3,0.8,2c-2.9,0-5.9,0-8.8,0c-1.2-3.2-2.3-6.4-3.5-9.6c-0.3,0.2-0.5,0.4-0.8,0.7
		c-0.7,0.6-1.4,1.2-2.2,1.9c-0.2,0.2-0.5,0.3-0.6,0.6c-0.5,2.1-0.9,4.3-1.4,6.4c-2.6,0-5.2,0-7.8,0c0-0.4,0.1-0.7,0.2-1.1
		c1.9-8.8,3.7-17.7,5.6-26.5C409.2,231.8,409.6,230,410,228.3L410,228.3z"/>
	<path id="XMLID_14_" class="st1" d="M263.6,236c0.5-0.1,1.1,0,1.6,0c0.6,0,1.1,0,1.7,0.1c1.4,0.2,2.8,0.4,4,1
		c0.7,0.3,1.4,0.8,2,1.3c0.3,0.2,0.5,0.5,0.7,0.7c0.5,0.5,0.9,1.1,1.2,1.8c0.6,1.2,0.8,2.5,0.9,3.9c0,0.6,0,1.2-0.1,1.7
		c0,0.8-0.2,1.6-0.3,2.4c-0.2,1-0.5,1.9-0.8,2.8c-0.2,0.6-0.4,1.2-0.8,1.8c-0.6,1.1-1.3,2.2-2.1,3.2c-0.4,0.3-0.6,0.8-1,1.1
		c-0.2,0.2-0.4,0.4-0.7,0.6c-0.3,0.3-0.7,0.5-1,0.8c-2.4,1.7-5.2,2.6-8.1,2.7c-1,0.1-1.9,0-2.9,0c-0.8-0.1-1.6-0.2-2.4-0.5
		c-0.8-0.3-1.7-0.5-2.4-1.1c-1.5-0.9-2.7-2.4-3.3-4c-0.6-1.5-0.6-3.2-0.6-4.8c0.1-0.4,0-0.9,0.2-1.3c0.5-3.3,1.7-6.5,3.9-9
		c0.4-0.3,0.6-0.8,1-1.1c0.3-0.2,0.5-0.4,0.7-0.6c1.2-0.9,2.4-1.7,3.7-2.2C260.3,236.5,262,236.2,263.6,236 M263.2,242.2
		c-0.6,0.1-1.2,0.3-1.8,0.6c-0.6,0.3-1,0.8-1.4,1.2c-1.2,1.3-1.7,3-2.1,4.7c-0.2,1-0.4,1.9-0.3,2.9c0,0.7,0.1,1.4,0.3,2.1
		c0.3,0.7,0.8,1.4,1.6,1.7c1,0.4,2.1,0.4,3.1,0.1c0.7-0.2,1.4-0.6,1.9-1.1c0.3-0.3,0.7-0.6,0.9-1c1.2-1.7,1.7-3.7,2-5.8
		c0.2-1,0.1-2-0.1-3c-0.2-0.8-0.6-1.6-1.4-2C265.1,242.1,264.1,242.1,263.2,242.2L263.2,242.2z"/>
	<path id="XMLID_17_" class="st1" d="M224.5,236.5c1.3-0.3,2.6-0.3,3.8-0.2c1.2,0.1,2.5,0.4,3.5,1.2c1.1,0.8,1.6,2.2,1.7,3.4
		c0,0.8,0.1,1.6,0,2.4c-0.2,1.4-0.5,2.8-0.8,4.2c-0.7,3.2-1.3,6.4-2,9.6c-0.3,1.3-0.5,2.6-0.8,3.8c0,0.1-0.2,0.1-0.3,0.1
		c-2.6,0-5.2,0-7.7,0c0.7-3.2,1.3-6.3,2-9.5c0.3-1.5,0.6-3,0.9-4.5c0.2-1,0.3-2,0.2-3.1c-0.1-0.5-0.2-1-0.6-1.3
		c-0.3-0.2-0.6-0.4-1-0.4c-0.9-0.2-1.9,0-2.8,0.3c-0.5,0.3-1,0.6-1.4,1c-1.1,1.2-1.5,2.8-1.8,4.4c-0.7,3.6-1.5,7.1-2.2,10.7
		c-0.2,0.8-0.3,1.5-0.5,2.3c-2.6,0-5.3,0-7.9,0c0-0.3,0.1-0.6,0.2-0.9c1.5-7.4,3.1-14.7,4.6-22.1c0.1-0.4,0.1-0.8,0.3-1.2
		c2.6,0,5.2,0,7.8,0c-0.2,1-0.5,2.1-0.6,3.1c0.5-0.4,0.9-1,1.4-1.3C221.5,237.6,223,236.8,224.5,236.5 M218.8,240"/>
	<path id="XMLID_18_" class="st1" d="M292.1,237.1c1.6-0.7,3.5-0.9,5.2-0.8c0.8,0.1,1.6,0.2,2.3,0.4c0.9,0.3,1.7,0.8,2.2,1.5
		c0.8,1,1,2.3,1,3.5c0,0.5-0.1,1-0.1,1.5c-0.2,1.6-0.6,3.2-0.9,4.8c-0.8,3.9-1.7,7.9-2.5,11.8c-0.1,0.4-0.2,0.9-0.3,1.3
		c-2.6,0-5.3,0-7.9,0c0-0.5,0.2-0.9,0.2-1.4c0.7-3.5,1.5-6.9,2.2-10.4c0.2-1,0.4-2,0.5-3c0-0.4,0.1-0.8,0.1-1.2c0-0.4,0-0.8,0-1.2
		c-0.1-0.4-0.3-0.8-0.6-1c-0.4-0.3-0.8-0.4-1.2-0.4c-0.5-0.1-1.1,0-1.6,0.1c-0.5,0.1-1,0.3-1.4,0.5c-0.4,0.2-0.6,0.5-0.9,0.8
		c-0.5,0.5-0.8,1.1-1.1,1.7c-0.7,1.6-0.9,3.4-1.3,5.1c-0.6,3-1.3,6-1.9,9.1c-0.1,0.5-0.2,1-0.3,1.5c-2.7,0-5.3,0-8,0
		c1.7-8.1,3.4-16.1,5.1-24.2c2.6,0,5.2,0,7.8,0c-0.2,1.1-0.5,2.1-0.6,3.2C289.3,238.8,290.6,237.7,292.1,237.1L292.1,237.1z"/>
	<path id="XMLID_21_" class="st1" d="M359.3,236.8c1.3-0.3,2.6-0.4,3.9-0.6c0.7,0,1.3,0,2,0c0.3,0,0.6,0.1,0.9,0.1
		c1,0.1,1.9,0.3,2.8,0.5c0.9,0.3,1.7,0.7,2.4,1.3c0.6,0.5,1.1,1.1,1.3,1.8c0.4,1,0.4,2.1,0.4,3.1c-0.2,1.7-0.5,3.4-0.9,5.1
		c-0.4,2-0.9,4.1-1.3,6.1c-0.2,1.1-0.5,2.2-0.6,3.3c0,0.4,0,0.8,0,1.3c0,0.5,0.2,1,0.6,1.2c-0.1,0.3-0.1,0.6-0.2,1
		c-0.1,0.1-0.2,0-0.3,0c-2.6,0-5.2,0-7.8,0c0-0.5,0-0.9,0.1-1.4c0.1-0.4,0-0.7,0-1.1c-1.3,1.1-2.8,1.9-4.3,2.5
		c-1.2,0.4-2.5,0.7-3.8,0.6c-1.3,0.1-2.7-0.1-3.9-0.8c-0.3-0.1-0.6-0.3-0.8-0.6c-0.4-0.4-0.8-0.8-1.1-1.3c-0.4-0.6-0.6-1.4-0.6-2.1
		c-0.1-0.5,0-1,0-1.5c0.2-1.7,0.8-3.3,1.9-4.7c0.3-0.4,0.7-0.7,1-1.1c0.4-0.4,0.9-0.8,1.4-1.1c1.3-0.8,2.8-1.3,4.3-1.6
		c1.2-0.3,2.4-0.5,3.6-0.7c1.5-0.3,3.1-0.5,4.5-1.3c0.3-0.2,0.5-0.5,0.6-0.9c0.1-0.3,0.2-0.7,0.2-1c0-0.4-0.2-0.8-0.5-1
		c-0.2-0.2-0.5-0.3-0.8-0.4c-0.8-0.2-1.6-0.3-2.4-0.1c-1,0.1-1.9,0.5-2.6,1.2c-0.4,0.4-0.6,0.9-0.9,1.4c-2.4,0-4.9,0-7.3,0
		c0.6-1.5,1.3-3,2.4-4.2c0.5-0.5,1.1-1.1,1.7-1.5C356.4,237.8,357.8,237.2,359.3,236.8 M361.3,250.6c-1.4,0.3-2.8,0.5-4.1,1.2
		c-0.8,0.5-1.2,1.4-1.3,2.3c-0.1,0.6,0,1.2,0.4,1.6c0.3,0.5,0.9,0.7,1.5,0.8c1.1,0.1,2.2-0.1,3.2-0.6c0.7-0.4,1.3-0.8,1.8-1.5
		c0.5-0.6,0.8-1.3,1-2.1c0.2-0.9,0.4-1.8,0.6-2.7C363.3,250.2,362.3,250.4,361.3,250.6L361.3,250.6z"/>
	<path id="XMLID_22_" class="st1" d="M392.4,236.5c2-0.4,4.1-0.4,6,0.2c0.7,0.2,1.3,0.6,1.8,1.1c0.7,0.6,1.1,1.6,1.2,2.5
		c0.3,1.7,0,3.4-0.3,5c-1.1,5.3-2.2,10.5-3.3,15.8c-2.7,0-5.3,0-8,0c0.3-1.9,0.8-3.7,1.1-5.6c0.4-1.9,0.8-3.8,1.2-5.7
		c0.3-1.6,0.7-3.2,0.8-4.9c0.1-0.3,0-0.6,0-0.9c0-0.4-0.1-0.8-0.4-1.1c-0.3-0.3-0.7-0.5-1.1-0.6c-0.9-0.2-1.9-0.1-2.7,0.2
		c-0.8,0.3-1.5,0.9-1.9,1.6c-0.8,1.2-1.2,2.7-1.5,4.1c-0.9,4.2-1.8,8.5-2.7,12.7c-2.6,0-5.3,0-7.9,0c1.5-7.3,3.1-14.7,4.6-22
		c0.1-0.7,0.3-1.4,0.4-2.2c2.6,0,5.2,0,7.8,0c0,0.5-0.2,1-0.3,1.5c-0.1,0.5-0.2,1.1-0.3,1.6c0.3-0.2,0.5-0.6,0.8-0.9
		c0.2-0.2,0.4-0.3,0.6-0.5C389.4,237.6,390.8,236.9,392.4,236.5z"/>
	<path id="XMLID_23_" class="st1" d="M240.1,236.9c2.7,0,5.3,0,8,0c-1.6,7.5-3.1,14.9-4.7,22.4c-0.1,0.6-0.3,1.2-0.4,1.8
		c-2.7,0-5.3,0-8,0c1.4-6.8,2.9-13.5,4.3-20.3C239.6,239.5,239.9,238.2,240.1,236.9L240.1,236.9z"/>
	<path id="XMLID_24_" class="st1" d="M368.4,268.8c0.3-0.1,0.5-0.1,0.8,0c0.4,0,0.8,0.1,1.2,0.1c-0.1,0.8-0.3,1.5-0.4,2.3
		c-0.5,0-1-0.1-1.4,0c-0.3,0.1-0.5,0.2-0.7,0.4c-0.4,0.6-0.4,1.3-0.6,1.9c0.7,0,1.5,0,2.2,0c-0.1,0.7-0.3,1.4-0.4,2
		c-0.7,0-1.5,0-2.2,0c-0.4,1.9-0.8,3.8-1.2,5.7c-0.3,1.6-0.7,3.3-1,4.9c-0.9,0-1.8,0-2.7,0c0.7-3.1,1.3-6.2,1.9-9.2
		c0.1-0.4,0.2-0.9,0.2-1.3c-0.6,0-1.3,0-1.9,0c0.1-0.7,0.3-1.4,0.4-2c0.6,0,1.3,0,1.9,0c0.3-0.9,0.4-1.9,0.8-2.8
		c0.3-0.5,0.6-1,1.1-1.3C366.9,269,367.7,268.8,368.4,268.8L368.4,268.8z"/>
	<path id="XMLID_25_" class="st1" d="M378.8,269c1,0,1.9,0,2.9,0c-0.1,0.7-0.3,1.5-0.4,2.2c-1.1,5-2.1,10-3.2,15c-1,0-1.9,0-2.9,0
		c0-0.4,0.1-0.7,0.2-1.1C376.6,279.7,377.7,274.3,378.8,269z"/>
	<path id="XMLID_28_" class="st1" d="M407.5,269c0.9,0,1.8,0,2.7,0c-1.1,5.5-2.3,11-3.5,16.5c-0.1,0.2,0,0.5-0.2,0.6
		c-0.9,0-1.7,0-2.6,0c0.1-0.5,0.2-1,0.3-1.5c-0.6,0.5-1.2,1-1.8,1.3c-0.8,0.4-1.6,0.6-2.5,0.6c-1.1,0-2.3-0.4-3.1-1.3
		c-0.3-0.4-0.6-0.9-0.8-1.3c-0.2-0.6-0.3-1.2-0.3-1.8c0-0.4,0.1-0.9,0.1-1.3c0.2-1.5,0.7-2.9,1.4-4.2c0.3-0.5,0.6-0.9,1-1.3
		c0.2-0.3,0.5-0.4,0.7-0.7c1.4-1.3,3.4-1.8,5.2-1.3c0.6,0.2,1.2,0.5,1.6,0.9c0.2,0.2,0.4,0.5,0.6,0.7c0.4-1.9,0.8-3.8,1.2-5.7
		C407.5,269.2,407.5,269.1,407.5,269 M402.2,275.6c-0.9,0.2-1.7,0.7-2.2,1.4c-0.4,0.6-0.7,1.2-1,1.9c-0.3,0.9-0.5,1.9-0.4,2.8
		c0.1,0.7,0.3,1.4,0.8,1.9c0.4,0.3,0.9,0.5,1.4,0.5c0.4,0,0.9,0,1.3-0.1c0.7-0.2,1.4-0.6,1.9-1.2c1-1.3,1.4-3,1.6-4.6
		c0-0.6-0.1-1.3-0.5-1.8c-0.4-0.6-1.2-0.9-1.9-0.9C402.8,275.6,402.5,275.6,402.2,275.6z"/>
	<path id="XMLID_29_" class="st1" d="M413.3,269c0.9,0,1.8,0,2.8,0c-0.2,0.9-0.3,1.8-0.6,2.7c-0.9,0-1.8,0-2.7,0
		C412.9,270.8,413.1,269.9,413.3,269L413.3,269z"/>
	<path id="XMLID_32_" class="st1" d="M354.1,272.9c1-0.1,2.1-0.1,3.1,0.2c1.5,0.4,2.8,1.6,3.4,3.1c0.5,1.6,0.4,3.3,0,4.9
		c-0.3,1-0.8,2-1.4,2.8c-0.4,0.4-0.7,0.9-1.2,1.2c-1.4,1.2-3.3,1.7-5.1,1.6c-0.9,0-1.8-0.2-2.6-0.5c-0.4-0.1-0.7-0.3-1-0.5
		c-1.3-0.9-2-2.5-2-4c-0.1-0.3-0.1-0.6,0-0.9c0-1.6,0.5-3.3,1.4-4.7c0.9-1.4,2.3-2.4,3.8-2.9C353.1,273,353.6,272.9,354.1,272.9
		 M354.3,274.8c-0.6,0.1-1.1,0.2-1.6,0.5c-0.4,0.3-0.9,0.6-1.2,1c-0.7,0.8-1.1,1.9-1.4,2.9c-0.2,0.6-0.3,1.3-0.2,2
		c0,1,0.2,2,0.9,2.7c0.3,0.2,0.6,0.4,0.9,0.6c1.7,0.6,3.7,0.1,4.9-1.3c0.4-0.5,0.8-1.1,1.1-1.8c0.4-0.9,0.5-1.8,0.6-2.7
		c0-0.9,0-1.8-0.4-2.6c-0.5-0.8-1.3-1.2-2.2-1.3C355.2,274.8,354.8,274.7,354.3,274.8z"/>
	<path id="XMLID_35_" class="st1" d="M422.3,273.2c1.1-0.1,2.3-0.1,3.4,0.3c0.6,0.2,1.2,0.5,1.5,1.1c0.2,0.3,0.4,0.7,0.3,1.1
		c0.1,1-0.3,2.1-0.5,3.1c-0.3,1.4-0.6,2.8-0.9,4.2c-0.1,0.3-0.1,0.7,0,1c0.3,0.1,0.7,0.1,1.1,0.1c-0.2,0.7-0.3,1.3-0.4,2
		c-0.8,0.2-1.7,0.3-2.6,0c-0.3-0.1-0.6-0.3-0.8-0.6c-0.2-0.3-0.2-0.7-0.2-1c-1.2,1.3-3,2.1-4.8,2c-0.9,0-1.8-0.3-2.4-1
		c-0.3-0.3-0.5-0.8-0.6-1.2c-0.1-0.8,0-1.6,0.3-2.3c0.3-0.8,0.8-1.6,1.5-2.1c0.7-0.5,1.4-0.8,2.2-1c0.8-0.2,1.6-0.3,2.4-0.4
		c0.9-0.2,1.8-0.2,2.5-0.8c0.4-0.3,0.6-0.9,0.5-1.4c0-0.4-0.4-0.8-0.8-0.9c-0.6-0.2-1.3-0.1-2-0.1c-0.6,0.1-1.2,0.3-1.7,0.7
		c-0.3,0.4-0.5,0.8-0.6,1.3c-0.9,0-1.7,0-2.6,0c0-0.4,0.2-0.8,0.3-1.1c0.2-0.5,0.4-0.9,0.8-1.3C419.2,273.9,420.8,273.3,422.3,273.2
		 M422.5,280.4c-1,0.2-2,0.2-3,0.6c-0.5,0.2-0.9,0.6-1.1,1.1c-0.2,0.5-0.4,1.2,0,1.7c0.1,0.3,0.4,0.4,0.7,0.5
		c0.8,0.2,1.7,0.1,2.5-0.2c0.9-0.4,1.8-1.1,2.2-2.1c0.2-0.7,0.3-1.3,0.5-2C423.6,280.1,423.1,280.3,422.5,280.4z"/>
	<path id="XMLID_36_" class="st1" d="M388.2,273.8c0.9-0.5,1.9-0.7,2.8-0.6c0.8,0.1,1.6,0.2,2.3,0.6c0.3,0.3,0.6,0.5,0.7,0.9
		c0.1,0.3,0.2,0.7,0.2,1c0.1,0.5-0.1,0.9-0.1,1.4c-0.1,0.9-0.4,1.8-0.5,2.8c-0.4,2-0.9,4.1-1.3,6.1c0,0.1-0.2,0.1-0.3,0.1
		c-0.8,0-1.6,0-2.5,0c0.2-1,0.4-1.9,0.6-2.9c0.2-0.8,0.3-1.7,0.5-2.5c0.2-1.1,0.5-2.2,0.7-3.4c0.1-0.7-0.2-1.5-0.9-1.7
		c-0.8-0.2-1.7-0.1-2.5,0.2c-0.7,0.3-1.4,0.9-1.8,1.6c-0.4,0.7-0.6,1.6-0.7,2.4c-0.5,2.1-0.9,4.2-1.3,6.3c-0.9,0-1.8,0-2.7,0
		c0.7-3.5,1.5-7,2.2-10.5c0.1-0.7,0.3-1.4,0.5-2.1c0.9,0,1.7,0,2.6,0c0,0.5-0.2,1-0.3,1.6C387,274.6,387.5,274.2,388.2,273.8
		L388.2,273.8z"/>
	<path id="XMLID_37_" class="st1" d="M412.3,273.5c0.9,0,1.8,0,2.8,0c-0.9,4.2-1.8,8.4-2.6,12.6c-0.9,0-1.8,0-2.8,0
		C410.6,281.9,411.5,277.7,412.3,273.5L412.3,273.5z"/>
</g>
</svg>
