<?xml version="1.0" encoding="utf-8"?>
<!-- Generator: Adobe Illustrator 19.0.0, SVG Export Plug-In . SVG Version: 6.00 Build 0)  -->
<svg version="1.1" id="Layer_1" xmlns="http://www.w3.org/2000/svg" xmlns:xlink="http://www.w3.org/1999/xlink" x="0px" y="0px"
	 viewBox="0 0 500 500" style="enable-background:new 0 0 500 500;" xml:space="preserve">
<style type="text/css">
	.st0{fill:#FFFFFF;}
	.st1{fill:#C4261B;}
	.st2{fill:#005192;}
</style>
<g id="XMLID_1_">
	<path id="XMLID_3_" class="st0" d="M334.9,231.3c0.8,0.3,1.3,0.9,1.9,1.5c7.8,8.2,15.7,16.4,23.5,24.6c0-8.2,0-16.5,0-24.7
		c2.1,0,4.2,0,6.3,0c0.2,0.7,0.3,1.5,0.3,2.3c0,12.5,0,25.1,0,37.6c-0.2,0.1-0.5,0.2-0.6,0.3c-8.4-8.5-16.5-17.3-24.9-25.9
		c-0.1,8.2,0.1,16.4-0.1,24.7c-2.1-0.1-4.3,0-6.4,0C334.8,258.1,334.8,244.7,334.9,231.3L334.9,231.3z"/>
	<path id="XMLID_4_" class="st0" d="M167.4,232.3c4.9-1.8,10.2-0.5,15,1c0.1,3.1,0,6.1,0,9.2c-2.9-1.8-6.1-3.6-9.7-3.7
		c-1.8-0.1-4,1-4,3c-0.1,1.5,1,2.6,2.2,3.3c4.3,2.7,9.2,4.6,12.5,8.5c4,5.5,1.9,14.2-4.2,17.3c-5.6,3-12.2,1.8-18,0
		c-0.3-3.4-0.5-6.9-0.7-10.3c3.3,2.1,7,4,11,3.9c1.7-0.1,3.7-0.6,4.6-2.3c0.9-1.5,0.2-3.5-1.1-4.5c-3.8-3-8.6-4.5-11.9-8.1
		c-2.1-2.2-3.2-5.4-2.9-8.5C160.5,237.1,163.6,233.6,167.4,232.3z"/>
	<path id="XMLID_7_" class="st0" d="M307.5,235.8c0.8-1.5,1.3-3.2,2.4-4.6c6.2,13.4,12.3,26.9,18.4,40.3c-2.3,0-4.7,0-7,0
		c-1.1-2.3-2.1-4.6-3.1-6.9c-5.8,0-11.7,0-17.5,0c-1,2.3-2,4.6-3.2,6.9c-2.3,0-4.5,0-6.8,0C296.3,259.7,301.8,247.7,307.5,235.8
		 M309,245.5c-2,4.5-3.9,9-6,13.5c4.2,0.2,8.4,0,12.6,0.1c-2-4.7-4.1-9.5-6.1-14.2C309.4,245,309.2,245.4,309,245.5z"/>
	<path id="XMLID_8_" class="st0" d="M86.7,232.7c3.6,0,7.3,0,10.9,0c2.8,4,5.4,8.3,8.2,12.4c2.9-4.1,5.9-8.3,8.9-12.3
		c3.2,0,6.4,0,9.6,0c-4.8,6.8-10.1,13.3-14.8,20.2c-0.1,6.2,0,12.4,0,18.6c-3,0-6.1,0-9.1,0c0-6.2,0.1-12.3-0.1-18.5
		C95.8,246.2,91.1,239.6,86.7,232.7z"/>
	<path id="XMLID_9_" class="st0" d="M128.2,271.5c0-12.9,0-25.9,0-38.8c7.9,0,15.7,0,23.6,0c0,2.6,0,5.3,0,7.9
		c-4.9,0.2-9.9-0.2-14.8,0.2c0,2.3,0,4.7,0,7c4.2,0,8.4-0.1,12.7,0c-0.1,2.6,0,5.2,0,7.9c-4.2,0-8.4,0-12.7,0c0,2.6,0,5.1,0,7.7
		c5,0,10,0,14.9,0c0,2.7,0,5.5,0,8.2C144.1,271.5,136.1,271.5,128.2,271.5z"/>
	<path id="XMLID_13_" class="st0" d="M261.1,232.7c4.9,0.1,9.8-0.2,14.7,0.3c3.2,0.4,6.6,1.6,8.3,4.5c1.8,3.2,1.8,7.6-0.6,10.5
		c-1.1,1.3-2.6,2-4.1,2.8c2.8,0.8,5.3,2.8,6.2,5.7c1.1,3.5,0.8,7.6-1.5,10.6c-2.5,3.2-6.8,4.1-10.6,4.4c-4.1,0.1-8.3,0-12.4,0.1
		C261.1,258.6,261.1,245.7,261.1,232.7 M267.5,237.9c0,3.6,0,7.3,0,11c2.9-0.1,6.1,0.4,8.7-1.2c3.1-1.7,3.4-7.1,0.2-8.8
		C273.7,237.5,270.5,238,267.5,237.9 M267.5,254.1c0,4,0,8.1,0,12.1c2.9-0.1,6.1,0.4,8.9-0.8c3.7-1.7,4.2-7.6,0.9-9.9
		C274.5,253.4,270.8,254.2,267.5,254.1z"/>
	<path id="XMLID_14_" class="st0" d="M379.1,271.6c0-12.9-0.1-25.9,0.1-38.8c2.2,0,4.3,0,6.5,0c0.1,5.8,0,11.6,0,17.4
		c5.5-5.8,10.9-11.6,16.4-17.4c2.6,0,5.2,0,7.7,0c-5.8,6.3-11.7,12.4-17.5,18.7c6.5,6.7,12.9,13.5,19.4,20.1c-2.9,0.1-5.8,0-8.6,0
		c-5.8-6.1-11.5-12.1-17.3-18.2c0,6,0,12.1,0,18.1C383.5,271.6,381.3,271.5,379.1,271.6L379.1,271.6z"/>
	<path id="XMLID_15_" class="st1" d="M262.5,191.8c1.9-2.5,3.6-5.1,5.6-7.5c-19.8,34.9-39.4,69.9-59.1,104.9
		c-4.9,8.8-9.9,17.6-14.8,26.4c-0.4-0.2-0.8-0.5-1.1-0.9c-6.9-7.1-13.9-14.1-20.9-21.2c4.9-0.1,9.9,0,14.8,0
		C212.2,259.7,237.3,225.8,262.5,191.8z"/>
	<path id="XMLID_20_" class="st2" d="M67.5,213.3c59-0.1,117.9,0,176.9,0c-19.6,25.9-39.1,51.9-58.8,77.7c-39.4,0-78.7,0-118.1,0
		C67.5,265.1,67.5,239.2,67.5,213.3 M167.4,232.3c-3.8,1.3-6.9,4.8-7.1,8.9c-0.3,3.1,0.8,6.3,2.9,8.5c3.3,3.6,8.2,5.1,11.9,8.1
		c1.3,1,2,3,1.1,4.5c-0.8,1.7-2.9,2.2-4.6,2.3c-4,0.1-7.7-1.9-11-3.9c0.1,3.4,0.4,6.9,0.7,10.3c5.7,1.8,12.4,3,18,0
		c6-3.1,8.2-11.8,4.2-17.3c-3.3-4-8.3-5.9-12.5-8.5c-1.1-0.7-2.3-1.9-2.2-3.3c0-2,2.2-3.1,4-3c3.5,0.1,6.7,1.9,9.7,3.7
		c0-3.1,0-6.1,0-9.2C177.7,231.8,172.4,230.5,167.4,232.3 M86.7,232.7c4.4,6.9,9.1,13.5,13.6,20.3c0.2,6.1,0,12.3,0.1,18.5
		c3,0,6.1,0,9.1,0c0-6.2-0.1-12.4,0-18.6c4.7-6.9,9.9-13.4,14.8-20.2c-3.2,0-6.4,0-9.6,0c-3,4.1-6,8.2-8.9,12.3
		c-2.8-4.1-5.4-8.3-8.2-12.4C94,232.8,90.3,232.7,86.7,232.7 M128.2,271.5c7.9,0,15.9,0,23.8,0c0-2.7,0-5.5,0-8.2
		c-5-0.1-10,0-14.9,0c0-2.6,0-5.1,0-7.7c4.2,0,8.4,0,12.7,0c0-2.6,0-5.3,0-7.9c-4.2-0.1-8.4,0-12.7,0c0-2.3,0-4.7,0-7
		c4.9-0.3,9.9,0,14.8-0.2c-0.1-2.6,0-5.3,0-7.9c-7.9,0-15.7,0-23.6,0C128.2,245.7,128.2,258.6,128.2,271.5z"/>
	<path id="XMLID_26_" class="st2" d="M241.2,235.8c4.3-7.5,8.2-15.2,12.6-22.6c59.5,0,119.1,0.1,178.6,0c0.2,25.9,0.1,51.9,0.1,77.8
		c-73.9,0-147.8,0-221.7,0C220.9,272.5,231.1,254.2,241.2,235.8 M334.9,231.3c-0.1,13.4,0,26.8,0,40.2c2.1,0,4.3-0.1,6.4,0
		c0.2-8.2,0-16.4,0.1-24.7c8.4,8.6,16.5,17.4,24.9,25.9c0.2-0.1,0.5-0.2,0.6-0.3c0-12.5,0-25.1,0-37.6c0-0.8-0.1-1.5-0.3-2.3
		c-2.1,0.1-4.2,0-6.3,0c0,8.2,0,16.5,0,24.7c-7.8-8.2-15.7-16.4-23.5-24.6C336.2,232.2,335.7,231.6,334.9,231.3 M307.5,235.8
		c-5.6,11.9-11.2,23.9-16.9,35.7c2.3,0,4.5,0,6.8,0c1.1-2.3,2.1-4.6,3.2-6.9c5.8,0,11.7,0,17.5,0c1,2.3,2,4.6,3.1,6.9
		c2.3-0.1,4.7,0,7,0c-6.1-13.4-12.1-26.9-18.4-40.3C308.8,232.6,308.2,234.3,307.5,235.8 M261.1,232.7c0,12.9,0,25.9,0,38.8
		c4.1,0,8.3,0.1,12.4-0.1c3.8-0.2,8.1-1.2,10.6-4.4c2.3-3,2.6-7.1,1.5-10.6c-0.9-2.8-3.4-4.9-6.2-5.7c1.5-0.7,3-1.4,4.1-2.8
		c2.4-2.9,2.4-7.3,0.6-10.5c-1.7-2.9-5.1-4.2-8.3-4.5C270.9,232.5,266,232.8,261.1,232.7 M379.1,271.6c2.2,0,4.4,0,6.6,0
		c0-6,0-12.1,0-18.1c5.8,6,11.6,12.1,17.3,18.2c2.9,0,5.8,0,8.6,0c-6.5-6.7-12.9-13.4-19.4-20.1c5.8-6.2,11.7-12.4,17.5-18.7
		c-2.6,0-5.2,0-7.7,0c-5.5,5.8-10.9,11.6-16.4,17.4c0-5.8,0.1-11.6,0-17.4c-2.2,0-4.3,0-6.5,0C379,245.7,379.1,258.6,379.1,271.6
		L379.1,271.6z"/>
	<path id="XMLID_27_" class="st2" d="M267.5,237.9c3,0.1,6.1-0.4,8.9,1c3.3,1.7,2.9,7.1-0.2,8.8c-2.6,1.6-5.8,1.1-8.7,1.2
		C267.5,245.2,267.6,241.6,267.5,237.9z"/>
	<path id="XMLID_28_" class="st2" d="M309,245.5c0.1-0.2,0.4-0.5,0.5-0.7c2,4.7,4.1,9.5,6.1,14.2c-4.2,0-8.4,0.1-12.6-0.1
		C305.1,254.6,307,250,309,245.5z"/>
	<path id="XMLID_29_" class="st2" d="M267.5,254.1c3.3,0.2,6.9-0.7,9.8,1.3c3.3,2.3,2.8,8.3-0.9,9.9c-2.8,1.3-5.9,0.7-8.9,0.8
		C267.5,262.1,267.6,258.1,267.5,254.1L267.5,254.1z"/>
</g>
</svg>
